<svg width="50" height="50" viewBox="0 0 50 50" fill="none" xmlns="http://www.w3.org/2000/svg">
<path d="M15.8044 41.5266L10.6154 44.9987C9.65221 45.7031 8.29706 45.0156 8.29706 43.8222V38.6104C6.18726 37.1346 4.46489 35.1712 3.2763 32.8872C2.0877 30.6032 1.468 28.0661 1.46985 25.4913V20.7538C1.47059 11.9119 8.6375 4.72072 17.5051 4.72072H32.4949C41.35 4.72072 48.5287 11.8994 48.5287 20.7553V25.4928C48.5287 34.3487 41.35 41.5273 32.4941 41.5273L15.8044 41.5266Z" fill="#FFD80C"/>
<path d="M48.5294 20.7544V25.4897C48.5294 34.35 41.3529 41.5265 32.4926 41.5265H15.8015L10.6176 44.9971L32.4926 4.71765C41.3529 4.71765 48.5294 11.9015 48.5294 20.7544Z" fill="#FFBE00"/>
<path d="M31.9765 22.786H18.0221V16.2625C18.0221 12.4155 21.1522 9.28604 24.9985 9.28604C28.8449 9.28604 31.9757 12.4155 31.9757 16.2625L31.9765 22.786ZM20.8316 19.9772H29.1677V16.2625C29.1663 15.1575 28.7267 14.0981 27.9452 13.3168C27.1638 12.5355 26.1043 12.096 24.9993 12.0949C23.8943 12.096 22.8349 12.5355 22.0536 13.3168C21.2723 14.0982 20.8328 15.1575 20.8316 16.2625V19.9772Z" fill="#152837"/>
<path d="M24.9978 9.28677C24.5162 9.28677 24.0463 9.3353 23.5934 9.42721C26.6993 10.0655 29.0581 12.7699 29.1625 16.0324C29.1669 16.1088 29.1669 16.1846 29.1669 16.2603V22.7853H31.9757V16.261C31.9757 12.4169 28.8456 9.28677 24.9978 9.28677Z" fill="#264762"/>
<path d="M35.0971 23.2691V32.4537C35.0971 33.4397 34.7054 34.3853 34.0082 35.0825C33.311 35.7797 32.3654 36.1713 31.3794 36.1713H18.6199C17.6339 36.1713 16.6883 35.7797 15.9911 35.0825C15.2939 34.3853 14.9022 33.4397 14.9022 32.4537V23.2691C14.9022 22.2831 15.2939 21.3376 15.9911 20.6404C16.6883 19.9432 17.6339 19.5515 18.6199 19.5515H31.3794C32.3654 19.5515 33.311 19.9432 34.0082 20.6404C34.7054 21.3376 35.0971 22.2831 35.0971 23.2691Z" fill="#152837"/>
<path d="M35.0971 23.2713V32.4559C35.0965 33.4411 34.7048 34.3858 34.0082 35.0825C33.3115 35.7791 32.3668 36.1708 31.3816 36.1713H28.3721C29.3574 36.1709 30.3023 35.7794 30.9991 35.0827C31.6959 34.3861 32.0876 33.4412 32.0882 32.4559V23.2721C32.0885 22.7838 31.9926 22.3002 31.806 21.8489C31.6194 21.3977 31.3458 20.9876 31.0007 20.6421C30.6556 20.2966 30.2459 20.0225 29.7949 19.8354C29.3438 19.6482 28.8604 19.5518 28.3721 19.5515H31.3816C32.3677 19.5523 33.313 19.9447 34.0098 20.6424C34.7065 21.3401 35.0976 22.2853 35.0971 23.2713Z" fill="#264762"/>
<path d="M26.2 27.5618L26.739 31.1015C26.7461 31.1481 26.743 31.1957 26.73 31.241C26.717 31.2863 26.6944 31.3283 26.6637 31.364C26.6329 31.3998 26.5949 31.4285 26.552 31.4481C26.5092 31.4678 26.4626 31.478 26.4154 31.478H23.5838C23.5367 31.478 23.4901 31.4678 23.4473 31.4481C23.4044 31.4285 23.3663 31.3998 23.3356 31.364C23.3049 31.3283 23.2823 31.2863 23.2693 31.241C23.2563 31.1957 23.2532 31.1481 23.2603 31.1015L23.7993 27.5618C23.5029 27.3151 23.2898 26.9831 23.1889 26.611C23.088 26.2388 23.1042 25.8447 23.2354 25.4821C23.3665 25.1195 23.6062 24.8061 23.9219 24.5847C24.2375 24.3632 24.6137 24.2444 24.9993 24.2444C25.3848 24.2444 25.761 24.3632 26.0767 24.5847C26.3923 24.8061 26.632 25.1195 26.7632 25.4821C26.8943 25.8447 26.9105 26.2388 26.8096 26.611C26.7087 26.9831 26.4963 27.3151 26.2 27.5618Z" fill="#FEC601"/>
</svg>
