<svg width="50" height="50" viewBox="0 0 50 50" fill="none" xmlns="http://www.w3.org/2000/svg">
<g clip-path="url(#clip0_82_1113)">
<path d="M48.2208 30.7661L45.2198 28.0706C45.598 26.0409 45.5981 23.9588 45.22 21.9291L48.2208 19.2338C48.4713 19.0087 48.6369 18.7044 48.6898 18.3718C48.7427 18.0391 48.6797 17.6985 48.5113 17.4068L45.2452 11.7498C45.0768 11.4582 44.8133 11.2332 44.4988 11.1127C44.1843 10.9922 43.8379 10.9835 43.5177 11.0879L39.68 12.3401C38.1139 10.9981 36.3022 9.95093 34.364 9.26728L33.5305 5.32169C33.4608 4.99217 33.2801 4.69658 33.0185 4.48447C32.7568 4.27235 32.4303 4.1566 32.0935 4.1566H27.0854C26.2743 4.1566 25.6167 4.8142 25.6167 5.62533V44.3745C25.6167 45.1856 26.2743 45.8432 27.0854 45.8432H32.0935C32.4303 45.8432 32.7568 45.7275 33.0185 45.5153C33.2801 45.3032 33.4608 45.0076 33.5305 44.6781L34.364 40.7327C36.3023 40.049 38.114 39.0018 39.68 37.6599L43.5177 38.912C43.8379 39.0166 44.1843 39.0078 44.4988 38.8873C44.8134 38.7668 45.0769 38.5418 45.2452 38.2501L48.5113 32.5932C48.6797 32.3015 48.7428 31.9608 48.6899 31.6282C48.637 31.2956 48.4714 30.9912 48.2208 30.7661Z" fill="#FEC601"/>
<path d="M28.8278 12.9409C27.7427 12.9403 26.6625 13.0866 25.6167 13.3757V36.6244C26.6625 36.9135 27.7427 37.0598 28.8278 37.0592C35.4771 37.0592 40.8867 31.6494 40.8867 24.9998C40.8867 18.3505 35.4771 12.9409 28.8278 12.9409Z" fill="#C39800"/>
<path d="M28.8278 18.8158C27.6948 18.8144 26.5835 19.1262 25.6167 19.7168V30.2832C26.5835 30.8738 27.6948 31.1856 28.8278 31.1842C32.2377 31.1842 35.0118 28.4099 35.0118 24.9997C35.0118 21.5899 32.2377 18.8158 28.8278 18.8158Z" fill="#FFDA56"/>
<path d="M24.0547 0H5.79119C3.31022 0 1.29179 2.01842 1.29179 4.4994V6.91732L4.77552 23.0809L1.29179 39.938V45.5006C1.29179 47.9816 3.31022 50 5.79119 50H24.0547C26.5357 50 28.5541 47.9816 28.5541 45.5006V39.938L24.7356 23.5215L28.5541 6.91702V4.4994C28.5541 2.01842 26.5357 0 24.0547 0Z" fill="#FEC601"/>
<path d="M24.0547 0H14.923V50H24.0547C26.5357 50 28.5541 47.9816 28.5541 45.5006V39.938L25.1322 22.9927L28.5541 6.91702V4.4994C28.5541 2.01842 26.5357 0 24.0547 0Z" fill="#C39800"/>
<path d="M14.923 46.6555C15.8544 46.6555 16.6094 45.9004 16.6094 44.969C16.6094 44.0376 15.8544 43.2825 14.923 43.2825C13.9915 43.2825 13.2365 44.0376 13.2365 44.969C13.2365 45.9004 13.9915 46.6555 14.923 46.6555Z" fill="#221D25"/>
<path d="M14.923 46.6555C15.8544 46.6555 16.6094 45.9004 16.6094 44.969C16.6094 44.0377 15.8543 43.2825 14.923 43.2825V46.6555Z" fill="#221D25"/>
<path d="M1.29179 6.91702V39.9381H28.554V6.91702H1.29179Z" fill="#323543"/>
<path d="M14.923 6.91702V39.9381H28.554V6.91702H14.923Z" fill="#221D25"/>
<path d="M19.8993 33.8764H9.94662C9.13549 33.8764 8.47789 33.2188 8.47789 32.4077C8.47789 31.5965 9.13549 30.9389 9.94662 30.9389H19.8993C20.7104 30.9389 21.368 31.5965 21.368 32.4077C21.368 33.2188 20.7104 33.8764 19.8993 33.8764Z" fill="#FEC601"/>
<path d="M19.8993 30.9389H14.923V33.8764H19.8993C20.7104 33.8764 21.368 33.2188 21.368 32.4077C21.368 31.5965 20.7104 30.9389 19.8993 30.9389Z" fill="#C39800"/>
<path d="M22.095 23.7102C23.7357 19.7532 21.8579 15.2154 17.9009 13.5747C13.9439 11.9341 9.40604 13.8118 7.76537 17.7688C6.1247 21.7259 8.00247 26.2637 11.9595 27.9043C15.9165 29.545 20.4543 27.6672 22.095 23.7102Z" fill="#FEC601"/>
<path d="M14.923 20.7348L8.20911 24.6111C9.55211 26.928 12.0577 28.4911 14.923 28.4911C17.7882 28.4911 20.2938 26.928 21.6368 24.6111L14.923 20.7348Z" fill="#FFDA56"/>
<path d="M21.6368 24.6111L14.923 20.7348V28.4911C17.7883 28.4911 20.2938 26.928 21.6368 24.6111Z" fill="#F1C52A"/>
<path d="M14.923 12.9786V20.7348L21.6368 24.6111C22.2983 23.4697 22.6792 22.1464 22.6792 20.7348C22.6792 16.458 19.1997 12.9786 14.923 12.9786Z" fill="#C49800"/>
</g>
<defs>
<clipPath id="clip0_82_1113">
<rect width="50" height="50" fill="white"/>
</clipPath>
</defs>
</svg>
