<svg width="50" height="50" viewBox="0 0 50 50" fill="none" xmlns="http://www.w3.org/2000/svg">
<path d="M44.3298 33.3896C42.9858 37.0319 40.9533 40.1989 38.288 42.8017C35.2542 45.7641 31.2815 48.1181 26.4804 49.7974C26.3212 49.8528 26.1585 49.8973 25.9932 49.9305C25.7751 49.9736 25.553 49.9969 25.3329 50H25.2898C25.0552 50 24.8194 49.9763 24.5856 49.9306C24.4204 49.8974 24.2583 49.8523 24.1015 49.7985C19.2946 48.122 15.3171 45.7691 12.2803 42.8066C9.61366 40.2039 7.58162 37.0387 6.23963 33.3965C3.7993 26.7742 3.93817 19.479 4.04998 13.6166L4.05194 13.5265C4.0744 13.0424 4.08885 12.5339 4.09686 11.9724C4.13768 9.21559 6.32957 6.93473 9.0869 6.78102C14.8356 6.46012 19.2828 4.58522 23.0826 0.881604L23.1158 0.851038C23.7468 0.272327 24.5418 -0.0114621 25.3329 0.000354263C26.0959 0.0102175 26.8557 0.293714 27.4641 0.85094L27.4966 0.881507C31.2972 4.58522 35.7444 6.46012 41.4931 6.78092C44.2504 6.93473 46.4424 9.21549 46.4831 11.9723C46.4911 12.5378 46.5056 13.0455 46.5281 13.5265L46.5293 13.5646C46.6406 19.4381 46.7788 26.7478 44.3298 33.3896Z" fill="#012F54"/>
<path d="M44.3298 33.3896C42.9858 37.0319 40.9533 40.1989 38.288 42.8017C35.2542 45.7641 31.2815 48.1181 26.4803 49.7974C26.3212 49.8528 26.1584 49.8973 25.9932 49.9305C25.7751 49.9736 25.553 49.9969 25.3329 50V0.000350952C26.0959 0.0102142 26.8557 0.29371 27.4641 0.850937L27.4966 0.881503C31.2971 4.58521 35.7444 6.46012 41.4931 6.78092C44.2504 6.93473 46.4424 9.21549 46.4831 11.9723C46.4911 12.5378 46.5055 13.0455 46.5281 13.5265L46.5293 13.5646C46.6406 19.4381 46.7788 26.7478 44.3298 33.3896Z" fill="#011627"/>
<path d="M37.7502 25C37.7502 31.8561 32.1834 37.437 25.3329 37.4614H25.2891C18.4185 37.4614 12.8276 31.871 12.8276 25C12.8276 18.1294 18.4185 12.5388 25.2891 12.5388H25.333C32.1834 12.5632 37.7502 18.1442 37.7502 25Z" fill="#FEC601"/>
<path d="M37.7502 25C37.7502 31.8561 32.1834 37.437 25.3329 37.4614V12.5388C32.1834 12.5632 37.7502 18.1442 37.7502 25Z" fill="#E9B500"/>
<path d="M30.9451 23.2055L25.3329 28.8185L24.1202 30.0312C23.9841 30.1676 23.8223 30.2758 23.6442 30.3495C23.4662 30.4232 23.2753 30.461 23.0826 30.4607C22.8898 30.461 22.6989 30.4232 22.5208 30.3495C22.3426 30.2758 22.1808 30.1676 22.0446 30.0312L19.4373 27.4227C18.8643 26.8497 18.8643 25.9215 19.4373 25.3482C20.0095 24.7753 20.9387 24.7753 21.5117 25.3482L23.0826 26.9191L28.8707 21.131C29.4436 20.5578 30.3729 20.5578 30.9451 21.131C31.518 21.7041 31.518 22.6334 30.9451 23.2055Z" fill="#012F54"/>
<path d="M30.9451 23.2055L25.3329 28.8185V24.6684L28.8707 21.1311C29.4436 20.5578 30.3729 20.5578 30.9451 21.1311C31.518 21.7041 31.518 22.6334 30.9451 23.2055Z" fill="#011627"/>
</svg>
